<?xml version="1.0" encoding="UTF-8" standalone="no"?>
<!DOCTYPE svg PUBLIC "-//W3C//DTD SVG 1.1//EN"
 "http://www.w3.org/Graphics/SVG/1.1/DTD/svg11.dtd">
<!-- Generated by graphviz version 2.38.0 (20140413.2041)
 -->
<!-- Title: Tree Pages: 1 -->
<svg width="1434pt" height="433pt"
 viewBox="0.00 0.00 1434.00 433.00" xmlns="http://www.w3.org/2000/svg" xmlns:xlink="http://www.w3.org/1999/xlink">
<g id="graph0" class="graph" transform="scale(1 1) rotate(0) translate(4 429)">
<title>Tree</title>
<polygon fill="white" stroke="none" points="-4,4 -4,-429 1430,-429 1430,4 -4,4"/>
<!-- 0 -->
<g id="node1" class="node"><title>0</title>
<polygon fill="#fbebfc" stroke="black" points="823.5,-425 596.5,-425 596.5,-342 823.5,-342 823.5,-425"/>
<text text-anchor="middle" x="710" y="-409.8" font-family="Times New Roman,serif" font-size="14.00">amount &lt;= 499.94</text>
<text text-anchor="middle" x="710" y="-394.8" font-family="Times New Roman,serif" font-size="14.00">gini = 0.741</text>
<text text-anchor="middle" x="710" y="-379.8" font-family="Times New Roman,serif" font-size="14.00">samples = 55985</text>
<text text-anchor="middle" x="710" y="-364.8" font-family="Times New Roman,serif" font-size="14.00">value = [11159, 14015, 12609, 18202]</text>
<text text-anchor="middle" x="710" y="-349.8" font-family="Times New Roman,serif" font-size="14.00">class = 3</text>
</g>
<!-- 1 -->
<g id="node2" class="node"><title>1</title>
<polygon fill="#acf3a6" stroke="black" points="630.5,-306 423.5,-306 423.5,-223 630.5,-223 630.5,-306"/>
<text text-anchor="middle" x="527" y="-290.8" font-family="Times New Roman,serif" font-size="14.00">in&#45;store &lt;= 0.5</text>
<text text-anchor="middle" x="527" y="-275.8" font-family="Times New Roman,serif" font-size="14.00">gini = 0.634</text>
<text text-anchor="middle" x="527" y="-260.8" font-family="Times New Roman,serif" font-size="14.00">samples = 25798</text>
<text text-anchor="middle" x="527" y="-245.8" font-family="Times New Roman,serif" font-size="14.00">value = [4091, 14015, 4378, 3314]</text>
<text text-anchor="middle" x="527" y="-230.8" font-family="Times New Roman,serif" font-size="14.00">class = 2</text>
</g>
<!-- 0&#45;&gt;1 -->
<g id="edge1" class="edge"><title>0&#45;&gt;1</title>
<path fill="none" stroke="black" d="M646.509,-341.907C631.179,-332.106 614.688,-321.563 599,-311.533"/>
<polygon fill="black" stroke="black" points="600.689,-308.459 590.379,-306.021 596.919,-314.356 600.689,-308.459"/>
<text text-anchor="middle" x="595.75" y="-326.737" font-family="Times New Roman,serif" font-size="14.00">True</text>
</g>
<!-- 8 -->
<g id="node9" class="node"><title>8</title>
<polygon fill="#f3c3f7" stroke="black" points="987.5,-306 800.5,-306 800.5,-223 987.5,-223 987.5,-306"/>
<text text-anchor="middle" x="894" y="-290.8" font-family="Times New Roman,serif" font-size="14.00">in&#45;store &lt;= 0.5</text>
<text text-anchor="middle" x="894" y="-275.8" font-family="Times New Roman,serif" font-size="14.00">gini = 0.628</text>
<text text-anchor="middle" x="894" y="-260.8" font-family="Times New Roman,serif" font-size="14.00">samples = 30187</text>
<text text-anchor="middle" x="894" y="-245.8" font-family="Times New Roman,serif" font-size="14.00">value = [7068, 0, 8231, 14888]</text>
<text text-anchor="middle" x="894" y="-230.8" font-family="Times New Roman,serif" font-size="14.00">class = 3</text>
</g>
<!-- 0&#45;&gt;8 -->
<g id="edge8" class="edge"><title>0&#45;&gt;8</title>
<path fill="none" stroke="black" d="M773.838,-341.907C789.252,-332.106 805.833,-321.563 821.607,-311.533"/>
<polygon fill="black" stroke="black" points="823.714,-314.34 830.275,-306.021 819.958,-308.433 823.714,-314.34"/>
<text text-anchor="middle" x="824.843" y="-326.724" font-family="Times New Roman,serif" font-size="14.00">False</text>
</g>
<!-- 2 -->
<g id="node3" class="node"><title>2</title>
<polygon fill="#60e853" stroke="black" points="344,-187 164,-187 164,-104 344,-104 344,-187"/>
<text text-anchor="middle" x="254" y="-171.8" font-family="Times New Roman,serif" font-size="14.00">age &lt;= 27.5</text>
<text text-anchor="middle" x="254" y="-156.8" font-family="Times New Roman,serif" font-size="14.00">gini = 0.223</text>
<text text-anchor="middle" x="254" y="-141.8" font-family="Times New Roman,serif" font-size="14.00">samples = 15984</text>
<text text-anchor="middle" x="254" y="-126.8" font-family="Times New Roman,serif" font-size="14.00">value = [0, 14015, 702, 1267]</text>
<text text-anchor="middle" x="254" y="-111.8" font-family="Times New Roman,serif" font-size="14.00">class = 2</text>
</g>
<!-- 1&#45;&gt;2 -->
<g id="edge2" class="edge"><title>1&#45;&gt;2</title>
<path fill="none" stroke="black" d="M432.284,-222.907C406.91,-212.033 379.404,-200.244 353.766,-189.257"/>
<polygon fill="black" stroke="black" points="354.982,-185.97 344.412,-185.248 352.225,-192.404 354.982,-185.97"/>
</g>
<!-- 5 -->
<g id="node6" class="node"><title>5</title>
<polygon fill="#fdf6f2" stroke="black" points="617,-187 437,-187 437,-104 617,-104 617,-187"/>
<text text-anchor="middle" x="527" y="-171.8" font-family="Times New Roman,serif" font-size="14.00">age &lt;= 55.5</text>
<text text-anchor="middle" x="527" y="-156.8" font-family="Times New Roman,serif" font-size="14.00">gini = 0.642</text>
<text text-anchor="middle" x="527" y="-141.8" font-family="Times New Roman,serif" font-size="14.00">samples = 9814</text>
<text text-anchor="middle" x="527" y="-126.8" font-family="Times New Roman,serif" font-size="14.00">value = [4091, 0, 3676, 2047]</text>
<text text-anchor="middle" x="527" y="-111.8" font-family="Times New Roman,serif" font-size="14.00">class = 2</text>
</g>
<!-- 1&#45;&gt;5 -->
<g id="edge5" class="edge"><title>1&#45;&gt;5</title>
<path fill="none" stroke="black" d="M527,-222.907C527,-214.649 527,-205.864 527,-197.302"/>
<polygon fill="black" stroke="black" points="530.5,-197.021 527,-187.021 523.5,-197.021 530.5,-197.021"/>
</g>
<!-- 3 -->
<g id="node4" class="node"><title>3</title>
<polygon fill="#eeacf4" stroke="black" points="146,-68 0,-68 0,-0 146,-0 146,-68"/>
<text text-anchor="middle" x="73" y="-52.8" font-family="Times New Roman,serif" font-size="14.00">gini = 0.465</text>
<text text-anchor="middle" x="73" y="-37.8" font-family="Times New Roman,serif" font-size="14.00">samples = 413</text>
<text text-anchor="middle" x="73" y="-22.8" font-family="Times New Roman,serif" font-size="14.00">value = [0, 0, 152, 261]</text>
<text text-anchor="middle" x="73" y="-7.8" font-family="Times New Roman,serif" font-size="14.00">class = 3</text>
</g>
<!-- 2&#45;&gt;3 -->
<g id="edge3" class="edge"><title>2&#45;&gt;3</title>
<path fill="none" stroke="black" d="M186.859,-103.882C170.391,-93.9191 152.816,-83.2862 136.523,-73.4299"/>
<polygon fill="black" stroke="black" points="137.987,-70.2249 127.62,-68.0433 134.364,-76.2142 137.987,-70.2249"/>
</g>
<!-- 4 -->
<g id="node5" class="node"><title>4</title>
<polygon fill="#5be84e" stroke="black" points="344,-68 164,-68 164,-0 344,-0 344,-68"/>
<text text-anchor="middle" x="254" y="-52.8" font-family="Times New Roman,serif" font-size="14.00">gini = 0.184</text>
<text text-anchor="middle" x="254" y="-37.8" font-family="Times New Roman,serif" font-size="14.00">samples = 15571</text>
<text text-anchor="middle" x="254" y="-22.8" font-family="Times New Roman,serif" font-size="14.00">value = [0, 14015, 550, 1006]</text>
<text text-anchor="middle" x="254" y="-7.8" font-family="Times New Roman,serif" font-size="14.00">class = 2</text>
</g>
<!-- 2&#45;&gt;4 -->
<g id="edge4" class="edge"><title>2&#45;&gt;4</title>
<path fill="none" stroke="black" d="M254,-103.726C254,-95.5175 254,-86.8595 254,-78.56"/>
<polygon fill="black" stroke="black" points="257.5,-78.2996 254,-68.2996 250.5,-78.2996 257.5,-78.2996"/>
</g>
<!-- 6 -->
<g id="node7" class="node"><title>6</title>
<polygon fill="#fcefe5" stroke="black" points="542,-68 362,-68 362,-0 542,-0 542,-68"/>
<text text-anchor="middle" x="452" y="-52.8" font-family="Times New Roman,serif" font-size="14.00">gini = 0.658</text>
<text text-anchor="middle" x="452" y="-37.8" font-family="Times New Roman,serif" font-size="14.00">samples = 7390</text>
<text text-anchor="middle" x="452" y="-22.8" font-family="Times New Roman,serif" font-size="14.00">value = [3002, 0, 2341, 2047]</text>
<text text-anchor="middle" x="452" y="-7.8" font-family="Times New Roman,serif" font-size="14.00">class = 2</text>
</g>
<!-- 5&#45;&gt;6 -->
<g id="edge6" class="edge"><title>5&#45;&gt;6</title>
<path fill="none" stroke="black" d="M499.073,-103.726C493.013,-94.879 486.596,-85.51 480.514,-76.6303"/>
<polygon fill="black" stroke="black" points="483.346,-74.5721 474.808,-68.2996 477.571,-78.5277 483.346,-74.5721"/>
</g>
<!-- 7 -->
<g id="node8" class="node"><title>7</title>
<polygon fill="#dbedfa" stroke="black" points="720,-68 560,-68 560,-0 720,-0 720,-68"/>
<text text-anchor="middle" x="640" y="-52.8" font-family="Times New Roman,serif" font-size="14.00">gini = 0.495</text>
<text text-anchor="middle" x="640" y="-37.8" font-family="Times New Roman,serif" font-size="14.00">samples = 2424</text>
<text text-anchor="middle" x="640" y="-22.8" font-family="Times New Roman,serif" font-size="14.00">value = [1089, 0, 1335, 0]</text>
<text text-anchor="middle" x="640" y="-7.8" font-family="Times New Roman,serif" font-size="14.00">class = 4</text>
</g>
<!-- 5&#45;&gt;7 -->
<g id="edge7" class="edge"><title>5&#45;&gt;7</title>
<path fill="none" stroke="black" d="M569.077,-103.726C578.678,-94.423 588.874,-84.5428 598.452,-75.2612"/>
<polygon fill="black" stroke="black" points="600.89,-77.7721 605.636,-68.2996 596.019,-72.7451 600.89,-77.7721"/>
</g>
<!-- 9 -->
<g id="node10" class="node"><title>9</title>
<polygon fill="#eca3f3" stroke="black" points="974,-187 814,-187 814,-104 974,-104 974,-187"/>
<text text-anchor="middle" x="894" y="-171.8" font-family="Times New Roman,serif" font-size="14.00">amount &lt;= 2970.3</text>
<text text-anchor="middle" x="894" y="-156.8" font-family="Times New Roman,serif" font-size="14.00">gini = 0.455</text>
<text text-anchor="middle" x="894" y="-141.8" font-family="Times New Roman,serif" font-size="14.00">samples = 12131</text>
<text text-anchor="middle" x="894" y="-126.8" font-family="Times New Roman,serif" font-size="14.00">value = [0, 0, 4240, 7891]</text>
<text text-anchor="middle" x="894" y="-111.8" font-family="Times New Roman,serif" font-size="14.00">class = 3</text>
</g>
<!-- 8&#45;&gt;9 -->
<g id="edge9" class="edge"><title>8&#45;&gt;9</title>
<path fill="none" stroke="black" d="M894,-222.907C894,-214.649 894,-205.864 894,-197.302"/>
<polygon fill="black" stroke="black" points="897.5,-197.021 894,-187.021 890.5,-197.021 897.5,-197.021"/>
</g>
<!-- 12 -->
<g id="node13" class="node"><title>12</title>
<polygon fill="#fffefe" stroke="black" points="1248,-187 1068,-187 1068,-104 1248,-104 1248,-187"/>
<text text-anchor="middle" x="1158" y="-171.8" font-family="Times New Roman,serif" font-size="14.00">amount &lt;= 999.735</text>
<text text-anchor="middle" x="1158" y="-156.8" font-family="Times New Roman,serif" font-size="14.00">gini = 0.648</text>
<text text-anchor="middle" x="1158" y="-141.8" font-family="Times New Roman,serif" font-size="14.00">samples = 18056</text>
<text text-anchor="middle" x="1158" y="-126.8" font-family="Times New Roman,serif" font-size="14.00">value = [7068, 0, 3991, 6997]</text>
<text text-anchor="middle" x="1158" y="-111.8" font-family="Times New Roman,serif" font-size="14.00">class = 2</text>
</g>
<!-- 8&#45;&gt;12 -->
<g id="edge12" class="edge"><title>8&#45;&gt;12</title>
<path fill="none" stroke="black" d="M985.593,-222.907C1009.13,-212.478 1034.56,-201.208 1058.47,-190.609"/>
<polygon fill="black" stroke="black" points="1060.18,-193.68 1067.91,-186.428 1057.35,-187.28 1060.18,-193.68"/>
</g>
<!-- 10 -->
<g id="node11" class="node"><title>10</title>
<polygon fill="#eca3f3" stroke="black" points="898,-68 738,-68 738,-0 898,-0 898,-68"/>
<text text-anchor="middle" x="818" y="-52.8" font-family="Times New Roman,serif" font-size="14.00">gini = 0.454</text>
<text text-anchor="middle" x="818" y="-37.8" font-family="Times New Roman,serif" font-size="14.00">samples = 12000</text>
<text text-anchor="middle" x="818" y="-22.8" font-family="Times New Roman,serif" font-size="14.00">value = [0, 0, 4179, 7821]</text>
<text text-anchor="middle" x="818" y="-7.8" font-family="Times New Roman,serif" font-size="14.00">class = 3</text>
</g>
<!-- 9&#45;&gt;10 -->
<g id="edge10" class="edge"><title>9&#45;&gt;10</title>
<path fill="none" stroke="black" d="M865.7,-103.726C859.56,-94.879 853.057,-85.51 846.894,-76.6303"/>
<polygon fill="black" stroke="black" points="849.689,-74.5191 841.112,-68.2996 843.939,-78.5104 849.689,-74.5191"/>
</g>
<!-- 11 -->
<g id="node12" class="node"><title>11</title>
<polygon fill="#fae6fc" stroke="black" points="1049.5,-68 916.5,-68 916.5,-0 1049.5,-0 1049.5,-68"/>
<text text-anchor="middle" x="983" y="-52.8" font-family="Times New Roman,serif" font-size="14.00">gini = 0.498</text>
<text text-anchor="middle" x="983" y="-37.8" font-family="Times New Roman,serif" font-size="14.00">samples = 131</text>
<text text-anchor="middle" x="983" y="-22.8" font-family="Times New Roman,serif" font-size="14.00">value = [0, 0, 61, 70]</text>
<text text-anchor="middle" x="983" y="-7.8" font-family="Times New Roman,serif" font-size="14.00">class = 3</text>
</g>
<!-- 9&#45;&gt;11 -->
<g id="edge11" class="edge"><title>9&#45;&gt;11</title>
<path fill="none" stroke="black" d="M927.14,-103.726C934.479,-94.6966 942.26,-85.1235 949.609,-76.0816"/>
<polygon fill="black" stroke="black" points="952.343,-78.2672 955.935,-68.2996 946.911,-73.8521 952.343,-78.2672"/>
</g>
<!-- 13 -->
<g id="node14" class="node"><title>13</title>
<polygon fill="#fdf5f0" stroke="black" points="1248,-68 1068,-68 1068,-0 1248,-0 1248,-68"/>
<text text-anchor="middle" x="1158" y="-52.8" font-family="Times New Roman,serif" font-size="14.00">gini = 0.646</text>
<text text-anchor="middle" x="1158" y="-37.8" font-family="Times New Roman,serif" font-size="14.00">samples = 10906</text>
<text text-anchor="middle" x="1158" y="-22.8" font-family="Times New Roman,serif" font-size="14.00">value = [4515, 0, 3990, 2401]</text>
<text text-anchor="middle" x="1158" y="-7.8" font-family="Times New Roman,serif" font-size="14.00">class = 2</text>
</g>
<!-- 12&#45;&gt;13 -->
<g id="edge13" class="edge"><title>12&#45;&gt;13</title>
<path fill="none" stroke="black" d="M1158,-103.726C1158,-95.5175 1158,-86.8595 1158,-78.56"/>
<polygon fill="black" stroke="black" points="1161.5,-78.2996 1158,-68.2996 1154.5,-78.2996 1161.5,-78.2996"/>
</g>
<!-- 14 -->
<g id="node15" class="node"><title>14</title>
<polygon fill="#eda7f3" stroke="black" points="1426,-68 1266,-68 1266,-0 1426,-0 1426,-68"/>
<text text-anchor="middle" x="1346" y="-52.8" font-family="Times New Roman,serif" font-size="14.00">gini = 0.459</text>
<text text-anchor="middle" x="1346" y="-37.8" font-family="Times New Roman,serif" font-size="14.00">samples = 7150</text>
<text text-anchor="middle" x="1346" y="-22.8" font-family="Times New Roman,serif" font-size="14.00">value = [2553, 0, 1, 4596]</text>
<text text-anchor="middle" x="1346" y="-7.8" font-family="Times New Roman,serif" font-size="14.00">class = 3</text>
</g>
<!-- 12&#45;&gt;14 -->
<g id="edge14" class="edge"><title>12&#45;&gt;14</title>
<path fill="none" stroke="black" d="M1227.74,-103.882C1245,-93.8269 1263.44,-83.0892 1280.49,-73.1563"/>
<polygon fill="black" stroke="black" points="1282.39,-76.1008 1289.27,-68.0433 1278.87,-70.052 1282.39,-76.1008"/>
</g>
</g>
</svg>
